<svg width="60" height="60" fill="none" xmlns="http://www.w3.org/2000/svg"><path d="M47.7 45.143a1.172 1.172 0 00-1.63.296 13.255 13.255 0 01-1.204 1.49c-.296.317-.703.7-1.146 1.077a1.172 1.172 0 001.519 1.785c.517-.44.98-.877 1.34-1.264.519-.555.995-1.145 1.417-1.754a1.172 1.172 0 00-.296-1.63zm-5.106 5.254a1.172 1.172 0 00-1.558-.563l-.037.016a1.172 1.172 0 10.947 2.145l.085-.039c.586-.275.838-.973.563-1.559z" fill="#000"/><path d="M56.499 3.047H3.501A3.505 3.505 0 000 6.548V39.39c0 1.93 1.57 3.5 3.501 3.5h24.678c1.046 4.427 3.412 7.562 5.48 9.57 3.017 2.932 6.477 4.493 7.813 4.493 1.337 0 4.797-1.561 7.815-4.493 2.067-2.008 4.433-5.143 5.479-9.57h1.733c1.93 0 3.501-1.57 3.501-3.5V6.548c0-1.93-1.57-3.501-3.501-3.501zm-3.53 35.041c0 6.175-2.85 10.27-5.241 12.619-2.837 2.785-5.746 3.87-6.256 3.902-.51-.033-3.419-1.116-6.255-3.902-2.39-2.349-5.24-6.444-5.24-12.619v-5.77a52.453 52.453 0 0011.496-4.863 54.272 54.272 0 0011.496 4.861v5.772zm4.687 1.302c0 .638-.519 1.157-1.157 1.157h-1.326c.09-.785.14-1.604.14-2.459v-6.66c0-.528-.355-.992-.865-1.13a51.698 51.698 0 01-12.384-5.208 1.172 1.172 0 00-1.184 0 50.28 50.28 0 01-12.383 5.208c-.51.139-.865.602-.865 1.13v6.66c0 .855.05 1.674.14 2.459H3.5c-.638 0-1.157-.52-1.157-1.157V19.453h55.312V39.39zm0-22.28H2.344v-4.688h55.312v4.687zm0-7.032H2.344v-3.53c0-.638.519-1.157 1.157-1.157h52.998c.638 0 1.157.519 1.157 1.157v3.53z" fill="#000"/><path d="M14.062 27.657a5.27 5.27 0 00-2.05.415 5.244 5.244 0 00-2.05-.415 5.28 5.28 0 00-5.274 5.273 5.28 5.28 0 005.273 5.273 5.25 5.25 0 002.051-.415 5.28 5.28 0 002.05.415 5.28 5.28 0 005.274-5.273 5.28 5.28 0 00-5.274-5.273zm-4.1 8.202a2.933 2.933 0 01-2.93-2.93A2.933 2.933 0 019.961 30a2.933 2.933 0 012.929 2.93 2.933 2.933 0 01-2.93 2.93zm4.39-.014a5.241 5.241 0 00.883-2.915c0-1.077-.326-2.08-.882-2.915a2.934 2.934 0 012.639 2.915 2.934 2.934 0 01-2.64 2.915zm-2.465-13.462H5.859a1.172 1.172 0 100 2.344h6.028a1.172 1.172 0 000-2.344zm3.464 0h-.056a1.172 1.172 0 100 2.344h.056a1.172 1.172 0 000-2.344zm32.554 13.011a1.172 1.172 0 00-1.657 0L39.98 41.66l-3.284-3.284a1.172 1.172 0 00-1.657 1.657l4.112 4.113a1.168 1.168 0 001.657 0l7.096-7.095a1.17 1.17 0 000-1.657z" fill="#000"/></svg>