<svg width="67" height="60" fill="none" xmlns="http://www.w3.org/2000/svg"><path d="M33.5 0C19.375 0 7.882 10.292 7.882 22.941v21.176c0 2.92 2.652 5.295 5.912 5.295s5.912-2.375 5.912-5.295V26.471c0-2.92-2.652-5.294-5.912-5.294a6.47 6.47 0 00-1.888.301C12.747 11.458 22.1 3.53 33.5 3.53c11.394 0 20.744 7.921 21.593 17.935a6.417 6.417 0 00-1.887-.287c-3.26 0-5.912 2.375-5.912 5.294v17.646c0 2.92 2.652 5.295 5.912 5.295a6.44 6.44 0 001.97-.325v2.09c0 .973-.885 1.764-1.97 1.764H39.05c-.817-2.05-2.983-3.53-5.549-3.53-3.26 0-5.912 2.376-5.912 5.295 0 2.92 2.652 5.294 5.912 5.294 2.566 0 4.732-1.48 5.549-3.53h14.157c3.26 0 5.912-2.374 5.912-5.293V22.94C59.118 10.291 47.625 0 33.5 0zm29.559 25.031v20.526c2.288-.73 3.941-2.671 3.941-4.969V30c0-2.297-1.653-4.238-3.941-4.969zM0 30v10.588c0 2.298 1.653 4.239 3.941 4.97V25.03C1.653 25.762 0 27.703 0 30z" fill="#000"/></svg>