<svg width="17" height="17" fill="none" xmlns="http://www.w3.org/2000/svg"><path d="M16.946 5.41a.139.139 0 000-.22l-3.42-2.63a.14.14 0 00-.214.163l.57 1.442c-2.59.097-4.058 1.022-5.085 2.095.382.436.7.878.989 1.28.143.201.28.392.419.575.779-.916 1.727-1.57 3.668-1.659l-.561 1.422a.14.14 0 00.13.19c.03 0 .06-.01.085-.028l3.419-2.63zM3.474 8.96a.139.139 0 01.169 0 .14.14 0 01.045.163l-.557 1.41c1.933-.122 2.884-.79 3.665-1.71.136.18.272.369.413.566.29.405.61.85.995 1.29-1.029 1.077-2.498 2.012-5.089 2.148l.573 1.45a.14.14 0 01-.214.162L.054 11.81a.138.138 0 010-.22l3.42-2.63zm5.953-1.162c1.021 1.424 1.846 2.57 4.442 2.736l-.557-1.412a.14.14 0 01.214-.162l3.42 2.63a.139.139 0 010 .22l-3.42 2.63a.14.14 0 01-.214-.163l.573-1.45c-3.81-.2-5.195-2.128-6.318-3.695-1.019-1.42-1.836-2.557-4.44-2.676l.561 1.422a.14.14 0 01-.214.162L.054 5.41a.139.139 0 010-.22l3.42-2.63a.14.14 0 01.214.163l-.57 1.442c3.805.143 5.19 2.071 6.31 3.633z" fill="#000"/></svg>