<svg width="60" height="60" fill="none" xmlns="http://www.w3.org/2000/svg"><path d="M4.033 14.98l-3.402.597-.607-3.462 10.964-1.922 1.922 10.964-3.462.607-.6-3.423C6.882 21.882 5.858 25.846 5.858 30c0 13.312 10.83 24.142 24.142 24.142S54.142 43.312 54.142 30 43.312 5.858 30 5.858a24.052 24.052 0 00-13.067 3.838l-3.175-4.923A29.897 29.897 0 0130 0c8.013 0 15.547 3.12 21.213 8.787C56.88 14.453 60 21.987 60 30c0 8.013-3.12 15.547-8.787 21.213C45.547 56.88 38.013 60 30 60c-8.013 0-15.547-3.12-21.213-8.787C3.12 45.547 0 38.013 0 30a30.1 30.1 0 014.033-15.02z" fill="#000"/><g clip-path="url(#clip0)"><path d="M47.853 22.485a.684.684 0 00-.026-.026l-7.426-6.6a.706.706 0 00-.233-.141l-5.373-1.92a.706.706 0 00-.946.628c0 .155-.232 3.734-3.812 3.79-3.6-.056-3.826-3.635-3.833-3.79a.706.706 0 00-.939-.629L19.9 15.74a.707.707 0 00-.233.14l-7.377 6.58a.706.706 0 000 1.024l5.873 5.937v16.236c0 .39.317.706.706.706h22.379c.39 0 .706-.316.706-.706V29.42l5.873-5.937a.706.706 0 00.026-.998zm-5.92 4.923v-3.276a.706.706 0 10-1.412 0v20.783H19.547V24.132a.706.706 0 10-1.412 0v3.283l-4.341-4.398 6.72-6.015 4.42-1.595a5.203 5.203 0 0010.214 0l4.42 1.595 6.699 6.015-4.335 4.391z" fill="#000"/></g><defs><clipPath id="clip0"><path fill="#fff" transform="translate(12.07 12.07)" d="M0 0h35.977v35.977H0z"/></clipPath></defs></svg>