<svg width="17" height="17" fill="none" xmlns="http://www.w3.org/2000/svg"><path d="M16.217 16.577l-1.27-11.835a.388.388 0 00-.382-.339h-2.35v-.72A3.686 3.686 0 008.533 0a3.686 3.686 0 00-3.684 3.684v.72H2.435c-.19 0-.36.148-.381.338L.784 16.577a.38.38 0 00.084.296c.064.085.17.127.275.127h14.714a.341.341 0 00.275-.127.38.38 0 00.085-.296zM11.834 6.542c.19 0 .34.148.34.338 0 .191-.15.34-.34.34a.334.334 0 01-.338-.34c0-.19.148-.338.338-.338zM5.61 3.684A2.927 2.927 0 018.532.762a2.927 2.927 0 012.921 2.922v.72H5.61v-.72zm-.38 2.858c.19 0 .338.148.338.338 0 .191-.148.34-.339.34a.334.334 0 01-.339-.34c0-.19.149-.338.34-.338zm-3.642 9.675L2.773 5.144h2.075v.7c-.423.147-.72.55-.72 1.015 0 .593.487 1.08 1.08 1.08.593 0 1.08-.487 1.08-1.08 0-.465-.297-.868-.72-1.016v-.699h5.843v.7c-.423.147-.72.55-.72 1.015 0 .593.487 1.08 1.08 1.08.593 0 1.08-.487 1.08-1.08 0-.465-.297-.868-.72-1.016v-.699h2.16l1.185 11.073H1.588z" fill="#fff"/></svg>